<svg height="1566" width="720" xmlns="http://www.w3.org/2000/svg">
<rect height="1566" fill="#555" width="720"></rect>
<text fill="#7f7" font-family="Courier New" font-size="12" xml:space="preserve">
<tspan x="10" y="26">25 megabytes installed</tspan>
<tspan x="10" y="42"></tspan>
<tspan x="10" y="58">node_modules</tspan>
<tspan x="10" y="74">└─┬ react-native-router-flux@3.38.0 </tspan>
<tspan x="10" y="90">  ├── UNMET PEER DEPENDENCY react@^0.13.0 || ^0.14.0 || ^15.0.0</tspan>
<tspan x="10" y="106">  ├─┬ react-native-experimental-navigation@0.26.12 </tspan>
<tspan x="10" y="122">  │ ├── babel-plugin-syntax-flow@6.18.0 </tspan>
<tspan x="10" y="138">  │ ├─┬ babel-plugin-transform-flow-strip-types@6.22.0 </tspan>
<tspan x="10" y="154">  │ │ └─┬ babel-runtime@6.23.0 </tspan>
<tspan x="10" y="170">  │ │   ├── core-js@2.4.1 </tspan>
<tspan x="10" y="186">  │ │   └── regenerator-runtime@0.10.3 </tspan>
<tspan x="10" y="202">  │ ├─┬ babel-preset-react-native@1.9.1 </tspan>
<tspan x="10" y="218">  │ │ ├── babel-plugin-check-es2015-constants@6.22.0 </tspan>
<tspan x="10" y="234">  │ │ ├─┬ babel-plugin-react-transform@2.0.2 </tspan>
<tspan x="10" y="250">  │ │ │ └── lodash@4.17.4 </tspan>
<tspan x="10" y="266">  │ │ ├── babel-plugin-syntax-async-functions@6.13.0 </tspan>
<tspan x="10" y="282">  │ │ ├── babel-plugin-syntax-class-properties@6.13.0 </tspan>
<tspan x="10" y="298">  │ │ ├── babel-plugin-syntax-jsx@6.18.0 </tspan>
<tspan x="10" y="314">  │ │ ├── babel-plugin-syntax-trailing-function-commas@6.22.0 </tspan>
<tspan x="10" y="330">  │ │ ├─┬ babel-plugin-transform-class-properties@6.24.1 </tspan>
<tspan x="10" y="346">  │ │ │ ├── babel-helper-function-name@6.24.1 </tspan>
<tspan x="10" y="362">  │ │ │ └─┬ babel-template@6.24.1 </tspan>
<tspan x="10" y="378">  │ │ │   └── babylon@6.16.1 </tspan>
<tspan x="10" y="394">  │ │ ├── babel-plugin-transform-es2015-arrow-functions@6.22.0 </tspan>
<tspan x="10" y="410">  │ │ ├─┬ babel-plugin-transform-es2015-block-scoping@6.24.1 </tspan>
<tspan x="10" y="426">  │ │ │ ├─┬ babel-traverse@6.24.1 </tspan>
<tspan x="10" y="442">  │ │ │ │ ├─┬ babel-code-frame@6.22.0 </tspan>
<tspan x="10" y="458">  │ │ │ │ │ └─┬ chalk@1.1.3 </tspan>
<tspan x="10" y="474">  │ │ │ │ │   ├── ansi-styles@2.2.1 </tspan>
<tspan x="10" y="490">  │ │ │ │ │   ├── escape-string-regexp@1.0.5 </tspan>
<tspan x="10" y="506">  │ │ │ │ │   ├─┬ has-ansi@2.0.0 </tspan>
<tspan x="10" y="522">  │ │ │ │ │   │ └── ansi-regex@2.1.1 </tspan>
<tspan x="10" y="538">  │ │ │ │ │   ├── strip-ansi@3.0.1 </tspan>
<tspan x="10" y="554">  │ │ │ │ │   └── supports-color@2.0.0 </tspan>
<tspan x="10" y="570">  │ │ │ │ ├─┬ debug@2.6.3 </tspan>
<tspan x="10" y="586">  │ │ │ │ │ └── ms@0.7.2 </tspan>
<tspan x="10" y="602">  │ │ │ │ ├── globals@9.17.0 </tspan>
<tspan x="10" y="618">  │ │ │ │ └── invariant@2.2.2 </tspan>
<tspan x="10" y="634">  │ │ │ └─┬ babel-types@6.24.1 </tspan>
<tspan x="10" y="650">  │ │ │   ├── esutils@2.0.2 </tspan>
<tspan x="10" y="666">  │ │ │   └── to-fast-properties@1.0.2 </tspan>
<tspan x="10" y="682">  │ │ ├─┬ babel-plugin-transform-es2015-classes@6.24.1 </tspan>
<tspan x="10" y="698">  │ │ │ ├── babel-helper-define-map@6.24.1 </tspan>
<tspan x="10" y="714">  │ │ │ ├── babel-helper-optimise-call-expression@6.24.1 </tspan>
<tspan x="10" y="730">  │ │ │ ├── babel-helper-replace-supers@6.24.1 </tspan>
<tspan x="10" y="746">  │ │ │ └── babel-messages@6.23.0 </tspan>
<tspan x="10" y="762">  │ │ ├── babel-plugin-transform-es2015-computed-properties@6.24.1 </tspan>
<tspan x="10" y="778">  │ │ ├── babel-plugin-transform-es2015-destructuring@6.23.0 </tspan>
<tspan x="10" y="794">  │ │ ├── babel-plugin-transform-es2015-for-of@6.23.0 </tspan>
<tspan x="10" y="810">  │ │ ├── babel-plugin-transform-es2015-function-name@6.24.1 </tspan>
<tspan x="10" y="826">  │ │ ├── babel-plugin-transform-es2015-literals@6.22.0 </tspan>
<tspan x="10" y="842">  │ │ ├─┬ babel-plugin-transform-es2015-modules-commonjs@6.24.1 </tspan>
<tspan x="10" y="858">  │ │ │ └── babel-plugin-transform-strict-mode@6.24.1 </tspan>
<tspan x="10" y="874">  │ │ ├─┬ babel-plugin-transform-es2015-parameters@6.24.1 </tspan>
<tspan x="10" y="890">  │ │ │ ├─┬ babel-helper-call-delegate@6.24.1 </tspan>
<tspan x="10" y="906">  │ │ │ │ └── babel-helper-hoist-variables@6.24.1 </tspan>
<tspan x="10" y="922">  │ │ │ └── babel-helper-get-function-arity@6.24.1 </tspan>
<tspan x="10" y="938">  │ │ ├── babel-plugin-transform-es2015-shorthand-properties@6.24.1 </tspan>
<tspan x="10" y="954">  │ │ ├── babel-plugin-transform-es2015-spread@6.22.0 </tspan>
<tspan x="10" y="970">  │ │ ├── babel-plugin-transform-es2015-template-literals@6.22.0 </tspan>
<tspan x="10" y="986">  │ │ ├── babel-plugin-transform-object-assign@6.22.0 </tspan>
<tspan x="10" y="1002">  │ │ ├─┬ babel-plugin-transform-object-rest-spread@6.23.0 </tspan>
<tspan x="10" y="1018">  │ │ │ └── babel-plugin-syntax-object-rest-spread@6.13.0 </tspan>
<tspan x="10" y="1034">  │ │ ├── babel-plugin-transform-react-display-name@6.23.0 </tspan>
<tspan x="10" y="1050">  │ │ ├─┬ babel-plugin-transform-react-jsx@6.24.1 </tspan>
<tspan x="10" y="1066">  │ │ │ └── babel-helper-builder-react-jsx@6.24.1 </tspan>
<tspan x="10" y="1082">  │ │ ├── babel-plugin-transform-react-jsx-source@6.22.0 </tspan>
<tspan x="10" y="1098">  │ │ ├─┬ babel-plugin-transform-regenerator@6.24.1 </tspan>
<tspan x="10" y="1114">  │ │ │ └─┬ regenerator-transform@0.9.11 </tspan>
<tspan x="10" y="1130">  │ │ │   └── private@0.1.7 </tspan>
<tspan x="10" y="1146">  │ │ └─┬ react-transform-hmr@1.0.4 </tspan>
<tspan x="10" y="1162">  │ │   ├─┬ global@4.3.2 </tspan>
<tspan x="10" y="1178">  │ │   │ ├─┬ min-document@2.19.0 </tspan>
<tspan x="10" y="1194">  │ │   │ │ └── dom-walk@0.1.1 </tspan>
<tspan x="10" y="1210">  │ │   │ └── process@0.5.2 </tspan>
<tspan x="10" y="1226">  │ │   └─┬ react-proxy@1.1.8 </tspan>
<tspan x="10" y="1242">  │ │     └── react-deep-force-update@1.0.1 </tspan>
<tspan x="10" y="1258">  │ ├── clamp@1.0.1 </tspan>
<tspan x="10" y="1274">  │ ├─┬ fbjs@0.8.12 </tspan>
<tspan x="10" y="1290">  │ │ ├── core-js@1.2.7 </tspan>
<tspan x="10" y="1306">  │ │ ├─┬ isomorphic-fetch@2.2.1 </tspan>
<tspan x="10" y="1322">  │ │ │ ├─┬ node-fetch@1.6.3 </tspan>
<tspan x="10" y="1338">  │ │ │ │ ├─┬ encoding@0.1.12 </tspan>
<tspan x="10" y="1354">  │ │ │ │ │ └── iconv-lite@0.4.15 </tspan>
<tspan x="10" y="1370">  │ │ │ │ └── is-stream@1.1.0 </tspan>
<tspan x="10" y="1386">  │ │ │ └── whatwg-fetch@2.0.3 </tspan>
<tspan x="10" y="1402">  │ │ ├─┬ loose-envify@1.3.1 </tspan>
<tspan x="10" y="1418">  │ │ │ └── js-tokens@3.0.1 </tspan>
<tspan x="10" y="1434">  │ │ ├── object-assign@4.1.1 </tspan>
<tspan x="10" y="1450">  │ │ ├─┬ promise@7.1.1 </tspan>
<tspan x="10" y="1466">  │ │ │ └── asap@2.0.5 </tspan>
<tspan x="10" y="1482">  │ │ ├── setimmediate@1.0.5 </tspan>
<tspan x="10" y="1498">  │ │ └── ua-parser-js@0.7.12 </tspan>
<tspan x="10" y="1514">  │ └── react-addons-pure-render-mixin@15.5.2 </tspan>
<tspan x="10" y="1530">  ├── react-native-tabs@1.0.9 </tspan>
<tspan x="10" y="1546">  └── react-static-container@1.0.1</tspan>
</text>
</svg>
